# xmcd CD database file
#
# Track frame offsets:
#	150
#	27403
#	54348
#	80094
#	107101
#	132914
#	152329
#	177613
#	206026
#
# Disc length: 3052 seconds
#
# Revision: 0
# Processed by: cddbd v1.5.2PL0 Copyright (c) Steve Scherf et al.
# Submitted via: CDex 1.70beta2
#
DISCID=780bea09
DTITLE=David Arkenstone - Spirit of the Rainforest
DYEAR=2006
DGENRE=New Age
TTITLE0=waterfall
TTITLE1=path of the jaguar
TTITLE2=sunbeams
TTITLE3=the hidden temple
TTITLE4=two rivers
TTITLE5=sanctuary
TTITLE6=heartbeat of the forest
TTITLE7=shaman's grave
TTITLE8=rainshower
EXTD=YEAR: 2006
EXTT0=
EXTT1=
EXTT2=
EXTT3=
EXTT4=
EXTT5=
EXTT6=
EXTT7=
EXTT8=
PLAYORDER=
